# xmcd
#
# Track frame offsets: 
#        150
#        14505
#        24265
#        34564
#        45788
#        61978
#        77020
#        90842
#        104319
#        126763
#        138481
#        148739
#        158431
#        173826
#
# Disc length: 2544 seconds
#
# Revision: 0
# Processed by: cddbd v1.5.2PL0 Copyright (c) Steve Scherf et al.
# Submitted via: ExactAudioCopy v1.2
#
DISCID=9e09ee0e
DTITLE=Gaye Adegbalola - Blues in All Flavors
DYEAR=2012
DGENRE=Blues
TTITLE0=The Sunshine Shake
TTITLE1=Blues for the Greens
TTITLE2=The Cleanest Kids
TTITLE3=Zip-a-Dee-Doo-Dah
TTITLE4=Please, Please, Please, Please
TTITLE5=The Thank You Song
TTITLE6=Gradma and Grandpa's House
TTITLE7=Stop That Bully
TTITLE8=It Hurts (the Picked Last Song)
TTITLE9=The Kindness Song
TTITLE10=Don't-Be-Moody-Do-Yo-Duty Song
TTITLE11=Hand Jivin
TTITLE12=The Recycle Song
TTITLE13=What a Wonderful World
EXTD=
EXTT0=
EXTT1=
EXTT2=
EXTT3=
EXTT4=
EXTT5=
EXTT6=
EXTT7=
EXTT8=
EXTT9=
EXTT10=
EXTT11=
EXTT12=
EXTT13=
PLAYORDER=
